<svg width="141" height="119" viewBox="0 0 141 119" fill="none" xmlns="http://www.w3.org/2000/svg">
<path d="M110.479 1.83083C93.2887 2.53977 57.6013 49.6646 75.7102 65.3018C81.187 70.031 90.7685 71.6029 97.3534 68.4928C98.0712 68.1538 102.05 66.5308 101.487 62.9841C92.0097 44.3157 52.3874 65.6495 38.8526 80.7643C29.949 90.7071 23.5244 106.687 36.0324 115.331" stroke="#171717" stroke-width="2" stroke-linecap="round"/>
<path d="M36.51 115.289C36.4136 115.038 36.5542 114.536 36.5364 114.266C36.4665 113.206 36.2954 112.165 36.1243 111.119C36.0466 110.644 35.9231 110.115 35.9951 109.632C36.0119 109.519 35.9838 109.605 35.9513 109.661" stroke="#171717" stroke-width="2" stroke-linecap="round"/>
<path d="M36.1705 115.629C35.4842 116.036 34.549 116.127 33.7864 116.304C32.7806 116.538 31.7544 116.623 30.7482 116.846" stroke="#171717" stroke-width="2" stroke-linecap="round"/>
</svg>
