<svg width="858" height="457" viewBox="0 0 858 457" fill="none" xmlns="http://www.w3.org/2000/svg">
<path d="M105.156 210.645C79.8382 210.645 54.4969 208.537 29.2295 210.645" stroke="#171717" stroke-width="3" stroke-linecap="round"/>
<path d="M108.715 242.69C73.031 245.484 37.3984 248.304 1.94336 253.372" stroke="#171717" stroke-width="3" stroke-linecap="round"/>
<path d="M424.364 127.611C435.269 139.272 443.507 155.081 450.35 168.514C429.211 173.629 408.081 178.679 386.897 183.654L386.892 183.655C386.15 183.831 385.523 184.219 385.085 184.792C384.656 185.354 384.475 186.006 384.462 186.618C384.442 187.567 384.826 188.56 385.549 189.265C387.626 201.815 391.397 214.197 395.18 226.211C395.403 226.999 395.912 227.61 396.597 227.947C397.013 228.152 397.454 228.237 397.88 228.232C398.582 228.59 399.43 228.696 400.359 228.369C404.143 227.154 407.912 225.919 411.675 224.686L411.676 224.686C413.826 223.982 415.974 223.278 418.123 222.578C412.397 230.614 409.876 240.844 411.331 250.669C412.098 255.964 413.799 261.952 416.522 267.398C418.859 272.072 421.984 276.418 425.987 279.561C409.448 288.059 393.939 286.847 375.377 283.833C364.372 282.046 353.166 282.877 345.899 293.135L345.898 293.136C341.874 298.83 338.938 305.232 336.105 311.544C335.962 311.863 335.82 312.181 335.677 312.499C332.975 318.526 330.324 324.441 326.835 329.803C318.313 342.789 307.739 354.505 294.404 362.28C279.347 370.99 259.551 375.938 242.128 377.793C226.406 379.45 210.408 376.023 196.768 367.877C182.512 359.345 172.506 347.468 164.259 334.095C158.291 324.417 153.29 314.041 148.256 303.596C146.309 299.557 144.358 295.507 142.343 291.484C142.153 291.09 141.961 290.715 141.778 290.358L141.774 290.351C141.6 290.013 141.435 289.69 141.273 289.357C134.654 269.474 130.475 248.411 129.927 228.598C129.181 199.266 138.547 168.894 162.428 150.785L161.522 149.59L162.428 150.785C186.232 132.729 217.627 128.961 246.653 134.022C261.028 136.566 274.912 140.984 288.514 146.485L288.517 146.486C289.639 146.938 290.773 147.402 291.918 147.872C301.407 151.762 311.667 155.969 322.43 155.375C337.014 154.591 345.55 144.747 353.41 134.937C353.863 134.371 354.314 133.807 354.763 133.243C362.248 123.859 369.381 114.917 380.843 112.256C399.052 108.056 413.054 115.516 424.364 127.611ZM262.575 331.696L262.579 331.655C262.888 328.642 261.367 326.303 259.273 324.897C257.223 323.521 254.532 322.958 252.115 323.401C247.124 324.268 243.717 328.948 244.756 334.036L244.759 334.047L244.761 334.058C245.736 338.493 250.051 342.563 255.229 341.474C259.707 340.537 262.905 336.171 262.575 331.696ZM294.158 322.214L294.236 322.065L294.28 321.902C295.062 318.948 293.276 316.656 291.3 315.329C289.327 314.005 286.697 313.277 284.635 313.515L284.631 313.515C279.585 314.111 276.945 318.995 277.708 323.42C278.411 327.872 282.461 331.41 287.313 330.343C289.042 329.965 290.885 328.841 292.2 327.393C293.379 326.095 294.341 324.289 294.108 322.311C294.127 322.275 294.144 322.242 294.158 322.214ZM309.913 306.77L309.925 306.768C312.424 306.226 314.636 304.453 315.804 302.267C316.934 300.15 317.145 297.488 315.501 295.18C315.24 293.011 313.967 291.158 312.356 289.882C310.628 288.512 308.355 287.678 306.114 287.835C303.256 288.024 300.926 289.677 299.469 291.83C298.018 293.976 297.344 296.741 297.89 299.366L297.893 299.379C299.059 304.752 304.858 307.823 309.913 306.77ZM254.522 283.35L254.542 283.377L254.562 283.403C257.833 287.542 264.06 288.181 268.241 285.243C269.5 284.372 270.727 282.802 271.534 281.131C272.217 279.716 272.722 277.969 272.492 276.305C272.901 275.634 273.098 274.737 272.704 273.712C268.223 260.494 264.43 247.149 260.614 233.722C258.85 227.515 257.081 221.291 255.237 215.054L255.234 215.044L255.23 215.033C255.14 214.745 255.067 214.508 255.003 214.224C254.918 213.772 254.705 213.382 254.419 213.086C251.637 208.755 245.46 207.466 241.21 210.531C239.959 211.433 239.12 212.577 238.549 213.791C238.358 213.883 238.168 214.005 237.993 214.164C237.435 214.669 237.181 215.408 237.327 216.192C237.393 216.596 237.445 216.985 237.501 217.395C237.546 217.732 237.594 218.084 237.65 218.452L237.648 218.466L237.664 218.65C237.678 218.818 237.695 218.965 237.71 219.087L237.71 219.093C237.725 219.221 237.737 219.323 237.747 219.438L237.751 219.485L237.758 219.532C240.802 240.076 246.284 261.448 254.159 280.615C254.078 280.805 254.017 281.01 253.982 281.228C253.863 281.958 254.054 282.7 254.522 283.35ZM290.02 275.669L290.024 275.669C293.014 275.671 295.502 273.976 296.95 271.73C298.396 269.489 298.914 266.531 297.771 263.843L297.747 263.788L297.719 263.734C297.578 263.465 297.399 263.174 297.149 262.901C292.909 246.173 287.923 229.467 282.975 213.003C283.548 209.895 281.841 207.462 279.594 206.178C277.31 204.874 274.199 204.574 271.732 205.924C268.373 207.739 266.913 210.881 266.601 214.083C266.209 214.57 266.044 215.221 266.16 215.856C268.46 233.731 275.084 251.557 281.388 268.107L281.405 268.151L281.424 268.194C281.608 268.597 281.883 269.03 282.267 269.376C283.164 272.732 286.301 275.658 290.02 275.669ZM310.051 260.589L310.065 260.587L310.078 260.586C318.528 259.717 326.231 257.139 333.629 253.165L333.638 253.16C334.206 252.85 334.709 252.386 334.974 251.729C335.18 251.217 335.193 250.709 335.11 250.257C335.131 250.003 335.126 249.642 334.987 249.251C331.97 236.016 327.981 222.733 324.058 209.673C323.54 207.946 323.022 206.224 322.508 204.505C322.603 203.941 322.565 203.329 322.354 202.763C322.053 201.959 321.364 201.203 320.261 201.023L320.244 201.021L320.227 201.018C311.009 199.738 301.243 201.771 293.837 207.694C293.374 207.805 292.939 208.049 292.601 208.413C292.068 208.987 291.837 209.793 292.024 210.633L292.038 210.694L292.056 210.753C292.065 210.782 292.076 210.835 292.106 211.02L292.111 211.046C292.131 211.172 292.164 211.379 292.224 211.597C295.066 227.287 299.955 242.929 305.591 257.743L305.602 257.772L305.615 257.801C306.073 258.869 306.948 259.544 307.951 259.709C308.044 259.823 308.15 259.933 308.269 260.035C308.785 260.477 309.412 260.643 310.051 260.589ZM394.215 234.327L394.246 234.3L394.275 234.272C394.569 233.989 394.756 233.723 394.894 233.47C395.658 232.789 395.972 231.726 395.643 230.659C394.484 226.786 393.341 222.884 392.194 218.971C388.936 207.852 385.651 196.64 381.903 185.71C381.793 185.257 381.619 184.82 381.488 184.494L381.472 184.452C381.266 183.937 380.853 183.388 380.236 183.126C380.073 182.964 379.882 182.815 379.658 182.691C379.171 182.42 378.627 182.321 378.073 182.352C370.68 182.734 363.152 184.618 356.84 189.011C356.63 189.124 356.468 189.249 356.364 189.332C356.292 189.389 356.248 189.425 356.215 189.452C356.171 189.489 356.145 189.51 356.098 189.544L356.975 190.761L356.098 189.544C355.608 189.898 355.253 190.379 355.092 190.95C355.019 191.208 354.991 191.462 354.997 191.704C354.756 192.207 354.65 192.794 354.751 193.415L354.753 193.429L354.756 193.442C357.558 208.925 362.103 224.107 367.635 238.791C368.004 239.824 368.74 240.386 369.502 240.643C369.578 240.798 369.669 240.948 369.776 241.091C370.219 241.682 370.929 242.123 371.836 242.14C380.196 242.741 387.994 239.695 394.215 234.327ZM396.642 155.628L396.649 155.627C401.897 154.803 404.57 148.998 402.065 144.476L402.022 144.398L401.97 144.326C401.965 144.319 401.959 144.31 401.951 144.3C401.916 144.249 401.853 144.161 401.769 144.057C400.969 140.968 398.103 138.646 394.923 138.375C392.35 138.14 390.188 139.289 388.74 140.999C387.311 142.686 386.522 144.971 386.619 147.225C386.809 152.329 391.463 156.414 396.642 155.628Z" fill="#F8E34A" stroke="#171717" stroke-width="3"/>
<path d="M740.854 116.851C741.052 117.799 740.392 118.396 739.673 118.49C739.102 118.538 738.507 118.301 738.276 117.559C735.586 110.715 733.646 103.148 732.279 95.9553L734.353 94.8839L734.411 94.9636C737.09 101.876 739.509 109.521 740.854 116.851Z" fill="#171717"/>
<path d="M398.856 223.262C395.233 211.76 392.487 200.049 389.24 188.397C423.264 180.403 457.334 172.557 491.334 164.277C524.455 156.207 557.147 146.447 589.955 137.27C623.277 127.965 656.598 118.66 689.92 109.355C703.267 105.607 718.991 102.387 732.361 95.8974C733.728 103.09 735.725 110.737 738.357 117.501C738.669 118.185 739.184 118.48 739.755 118.432L739.743 118.501C722.597 120.505 704.998 128.772 689.679 133.396C657.787 143.003 625.268 150.397 593.41 160.222C528.327 180.494 463.65 202.169 398.856 223.262Z" fill="white"/>
<path d="M448.762 168.839L733.293 94.4928L740.21 120.545L400.548 228.323" stroke="#171717" stroke-width="3"/>
<path d="M825.915 110.101C825.808 109.027 825.411 107.132 824.996 106.22C825.715 106.125 826.434 106.031 827.154 105.936C827.159 107.205 827.381 108.438 827.831 109.567C827.17 109.741 826.508 109.915 825.915 110.101Z" fill="white"/>
<path d="M825.081 110.46C825.389 110.298 825.617 110.195 825.914 110.102C825.903 110.171 825.903 110.171 825.96 110.25C825.951 110.742 825.539 110.675 825.081 110.46Z" fill="#171717"/>
<path d="M785 119.793C784.383 119.693 783.686 119.65 783.036 119.756C782.534 119.815 782.089 119.954 781.644 120.093C781.609 119.876 781.574 119.659 781.618 119.385C782.667 118.992 783.648 118.588 784.697 118.195C784.745 118.766 784.872 119.279 785 119.793Z" fill="white"/>
<path d="M803.453 116.242C803.058 114.769 802.527 113.275 802.053 111.86C802.942 111.582 803.763 111.293 804.653 111.015C804.751 112.58 804.917 114.156 805.449 115.65C804.798 115.756 804.137 115.93 803.453 116.242Z" fill="white"/>
<path d="M739.907 117.207C738.615 110.164 736.353 102.862 733.828 96.1986C742.612 91.4082 750.253 84.951 755.19 75.6922C758.607 76.2324 762.185 76.3433 765.806 76.1492C764.76 77.2092 764.048 78.6235 763.805 80.1263C763.246 83.5712 765.343 87.1994 769.194 87.731L769.201 87.7319C772.111 88.1194 775.123 86.4121 776.221 83.6511C776.656 83.2964 776.97 82.7794 777.074 82.1401L777.077 82.122L777.08 82.1039C777.471 79.2505 775.972 76.6672 773.674 75.2991C778.367 74.5619 782.995 73.4642 787.311 72.2757C787.056 72.5179 786.824 72.7805 786.617 73.0573C785.652 74.3461 785.149 76.0204 785.296 77.6529C785.418 79.0836 786.118 80.848 787.608 81.8388C788.314 82.3605 789.158 82.5636 789.868 82.6365C790.617 82.7133 791.375 82.6612 792.014 82.5575L792.036 82.5539L792.058 82.5497C793.45 82.2811 794.867 81.5297 795.937 80.4783C797.004 79.4301 797.852 77.9492 797.787 76.2088C797.772 75.3329 797.303 74.7575 796.892 74.4125C796.067 72.5403 794.227 71.2234 792.266 70.8396C797.479 69.2485 802.581 67.3057 807.536 65.0364C806.279 66.6482 805.922 68.8912 806.662 70.9279L806.666 70.9369L806.669 70.9459C807.822 73.9974 811.114 76.2485 814.669 75.0049L814.675 75.0028C816.235 74.4493 817.637 73.1353 818.45 71.6329C819.268 70.1219 819.645 68.1012 818.564 66.2846L818.53 66.2282L818.492 66.1749C818.221 65.799 817.832 65.4808 817.373 65.308C816.231 63.5448 814.123 62.7416 812.182 62.7913C817.145 60.2659 821.943 57.4085 826.54 54.2459C826.746 56.9474 827.382 59.7839 828.654 62.1202C829.533 63.7361 830.748 65.17 832.39 66.1118C833.659 66.8398 835.12 67.2368 836.762 67.2426C835.073 79.4805 839.44 91.6294 846.754 101.193C839.489 100.393 832.137 100.584 824.807 101.498C825.958 100.773 826.87 99.6713 827.27 98.2865C827.297 98.2604 827.324 98.2332 827.35 98.2048C827.632 97.9019 827.876 97.452 827.88 96.891C828.202 93.3322 825.205 90.4805 821.925 90.3058L821.91 90.305L821.895 90.3045C818.117 90.1782 815.623 93.5922 815.812 96.8567L815.813 96.8658C815.97 99.3236 817.525 101.518 819.805 102.233C814.115 103.19 808.455 104.548 802.874 106.182C803.054 106.041 803.228 105.893 803.395 105.74C804.616 104.618 805.633 103.018 805.648 101.138C805.669 100.264 805.191 99.6006 804.705 99.2198C804.434 99.007 804.109 98.8373 803.752 98.738C802.882 97.732 801.779 96.792 800.522 96.1461C799.057 95.3928 797.303 95.0043 795.486 95.5067C791.946 96.4795 790.486 100.241 791.623 103.343L791.625 103.35L791.628 103.357C792.568 105.843 794.674 107.623 797.206 107.94C792.036 109.632 786.951 111.528 781.994 113.525C782.35 113.206 782.669 112.853 782.943 112.484C783.636 111.55 784.165 110.344 784.175 109.083C784.237 108.95 784.29 108.794 784.321 108.614C785.051 104.636 781.805 101.036 778.021 100.777L778.007 100.776C773.569 100.513 770.133 104.689 770.608 108.822C771.044 112.619 774.663 115.255 778.263 115.055C773.79 116.922 769.433 118.852 765.223 120.765C764.851 120.925 764.536 121.151 764.286 121.43C756.407 117.785 748.18 116.854 739.936 117.434C739.931 117.38 739.925 117.327 739.918 117.272L739.913 117.24L739.907 117.207Z" fill="#8A8A8F" stroke="#171717" stroke-width="3"/>
<path d="M759.199 60.9777C758.484 62.249 760.227 63.4656 761.061 64.0482C761.888 64.6262 762.754 64.9836 763.735 65.2046C764.552 65.3885 765.471 65.2624 766.292 65.1296C767.903 64.8687 769.535 64.2712 770.686 63.0931C770.94 62.8337 771.103 62.2498 771.124 61.8973C771.165 61.2033 771.085 60.537 770.773 59.9121C770.316 58.9966 769.965 58.3733 768.99 57.9941C767.384 57.3692 765.487 57.154 763.775 57.2995C762.166 57.4361 760.335 58.5117 760.335 60.2673" stroke="#171717" stroke-width="3" stroke-linecap="round"/>
<path d="M777.832 55.6542C777.878 56.852 779.038 57.9172 780.006 58.4603C781.565 59.3355 783.383 59.5579 785.126 59.3088C785.801 59.2124 786.452 59.0293 787.119 58.8905C787.499 58.8112 787.925 58.7802 788.294 58.6655C788.861 58.4895 789.505 57.9181 789.896 57.5052C790.598 56.7636 791.159 55.5307 790.854 54.4821C790.45 53.0894 788.56 52.7183 787.363 52.4732C785.659 52.1245 783.943 52.3599 782.219 52.3864C780.967 52.4057 779.864 53.1374 779.181 54.1624C778.865 54.6376 778.329 55.1895 778.329 55.7963" stroke="#171717" stroke-width="3" stroke-linecap="round"/>
<path d="M800.873 50.9295C801.165 51.0754 801.39 51.4283 801.634 51.6399C802.271 52.1915 803.016 52.5535 803.804 52.8358C804.704 53.1581 805.499 53.2515 806.443 53.1318C807.366 53.0148 808.461 52.8953 809.311 52.4924C809.772 52.2739 810.106 51.8814 810.514 51.5847C811.243 51.0555 811.587 50.0055 811.682 49.1378C811.818 47.8957 811.817 46.5645 810.672 45.8147C809.243 44.8791 807.666 44.7906 805.986 44.907C804.44 45.014 802.853 45.3387 801.615 46.312C801.135 46.689 800.532 47.6053 800.518 48.2458C800.503 48.9096 800.619 49.1503 801.157 49.5088" stroke="#171717" stroke-width="3" stroke-linecap="round"/>
<path d="M766.245 66.4014C766.245 67.1138 766.471 67.7981 766.626 68.4881C766.86 69.5331 766.91 70.7711 766.802 71.8343C766.694 72.8912 766.576 73.8785 766.245 74.8717" stroke="#171717" stroke-width="3" stroke-linecap="round"/>
<path d="M768.983 65.9736C768.983 66.8417 769.855 67.7875 770.162 68.5879C770.482 69.4226 770.799 70.2624 771.273 71.0216C771.833 71.9173 772.629 73.0165 773.601 73.5028" stroke="#171717" stroke-width="3" stroke-linecap="round"/>
<path d="M783.208 61.1411C783.434 62.3382 783.814 63.4938 784.025 64.7013C784.271 66.1089 784.629 67.573 784.571 69.0125C784.54 69.7961 784.589 71.0402 784.234 71.7504" stroke="#171717" stroke-width="3" stroke-linecap="round"/>
<path d="M788.424 60.2852C788.69 61.2169 789.418 62.0561 789.944 62.8519C790.71 64.0102 791.722 65.1415 792.695 66.1317C793.27 66.7178 793.959 67.1792 794.571 67.724C794.779 67.9086 794.914 68.068 795.179 68.1566" stroke="#171717" stroke-width="3" stroke-linecap="round"/>
<path d="M806.687 53.958C806.687 55.4458 807.247 56.8535 807.247 58.3405C807.247 60.1108 806.77 61.8397 806.345 63.5406" stroke="#171717" stroke-width="3" stroke-linecap="round"/>
<path d="M809.595 52.9312C809.595 54.3723 809.665 55.9475 810.075 57.3279C810.399 58.423 810.936 59.2924 811.728 60.1086C812.239 60.6353 812.76 61.1464 813.186 61.7437" stroke="#171717" stroke-width="3" stroke-linecap="round"/>
<path d="M779.662 126.854C779.406 126.983 779.66 127.696 779.72 127.891C779.966 128.697 780.526 129.074 781.228 129.497C783.626 130.944 786.374 130.721 789.066 130.689C790.006 130.678 791.048 130.204 791.558 129.336C792.194 128.255 791.609 126.514 790.977 125.599C790.171 124.433 788.942 123.583 787.731 122.882C787.084 122.506 786.42 122.127 785.671 122.006C785.138 121.921 784.657 122.142 784.157 122.294C783.437 122.514 782.537 122.706 781.959 123.227C781.195 123.914 781.102 125.388 780.905 126.313C780.738 127.1 780.696 127.268 781.423 127.476" stroke="#171717" stroke-width="3" stroke-linecap="round"/>
<path d="M801.208 120.429C800.98 121.519 800.605 123.001 801.323 123.999C802.487 125.617 805.404 125.197 807.101 125.197C809.488 125.197 810.919 123.012 810.658 120.717C810.512 119.434 809.895 118.802 808.713 118.362C807.163 117.785 805.343 117.527 803.7 117.527C802.317 117.527 801.519 118.369 801.519 119.704" stroke="#171717" stroke-width="3" stroke-linecap="round"/>
<path d="M823.585 114.418C823.525 115.257 823.245 115.973 823.591 116.796C824.046 117.878 824.918 118.677 826.123 118.759C827.261 118.836 828.512 118.712 829.346 117.878C830.383 116.84 831.71 115.732 831.648 114.124C831.555 111.7 828.416 111.412 826.635 111.412C825.032 111.412 823.585 112.538 823.585 114.21" stroke="#171717" stroke-width="3" stroke-linecap="round"/>
<path d="M826.694 110.895C825.878 108.144 826.383 99.4234 826.383 102.293" stroke="#171717" stroke-width="3" stroke-linecap="round"/>
<path d="M824.31 111.412C823.059 109.554 821.658 107.828 820.811 105.735C820.528 105.036 820.191 104.286 819.648 103.743" stroke="#171717" stroke-width="3" stroke-linecap="round"/>
<path d="M807.001 116.804C806.599 115.615 806.13 114.441 805.784 113.234C805.464 112.116 805.448 111.003 805.39 109.853C805.335 108.763 805.344 107.674 805.344 106.584" stroke="#171717" stroke-width="3" stroke-linecap="round"/>
<path d="M801.387 117.633C801.141 116.588 800.561 115.573 800.104 114.605C799.757 113.869 799.415 113.045 798.851 112.441C798.407 111.966 797.886 111.56 797.451 111.076C797.313 110.923 797.149 110.509 797.062 110.313C796.907 109.963 796.582 109.675 796.418 109.347" stroke="#171717" stroke-width="3" stroke-linecap="round"/>
<path d="M786.939 121.685C786.36 121.154 786.386 119.862 786.386 119.148C786.386 118.237 786.514 117.323 786.591 116.416C786.693 115.212 787.045 114.035 787.215 112.846" stroke="#171717" stroke-width="3" stroke-linecap="round"/>
<path d="M781.323 122.329C780.709 121.292 779.866 120.369 779.064 119.475C778.501 118.848 777.898 118.291 777.643 117.47C777.495 116.997 777.356 116.651 777.274 116.16" stroke="#171717" stroke-width="3" stroke-linecap="round"/>
</svg>
