<svg width="36" height="42" viewBox="0 0 36 42" fill="none" xmlns="http://www.w3.org/2000/svg">
<path d="M11.2539 7.90358C11.3872 6.30447 12.5402 4.45097 13.7427 3.45075C15.7184 1.80739 18.6061 1.70608 20.7743 3.04595C23.1847 4.53556 20.7302 7.7549 19.7548 9.28291C17.9408 12.1244 16.0904 14.9518 14.2225 17.7538" stroke="#171717" stroke-width="3" stroke-linecap="round"/>
<path d="M11.1093 7.89072C10.1638 6.56702 8.24678 6.27421 6.67795 5.79029C6.01774 5.58664 5.18125 5.73607 4.57585 6.06989C3.5349 6.64387 3.12521 7.19689 2.56448 8.26916C2.11584 9.12708 2.02498 9.9129 2.501 10.7861C3.33177 12.3101 4.71114 13.4572 6.16059 14.36C8.12609 15.5842 10.2249 16.5899 12.353 17.4959C12.8129 17.6917 13.2843 17.9209 13.7813 18.0037" stroke="#171717" stroke-width="3" stroke-linecap="round"/>
<path d="M26.3169 30.622C27.0911 29.6877 28.6078 29.0367 29.7863 28.9364C31.7224 28.7715 33.5573 29.9575 34.3227 31.7262C35.1736 33.6925 32.2589 34.6279 30.9931 35.1538C28.6391 36.1317 26.2687 37.0852 23.8984 38.0154" stroke="#171717" stroke-width="3" stroke-linecap="round"/>
<path d="M26.2324 30.5517C26.2184 29.3218 25.156 28.3112 24.3922 27.3326C24.0707 26.9207 23.4873 26.6517 22.9674 26.5969C22.0735 26.5028 21.5803 26.6686 20.7687 27.0912C20.1195 27.4293 19.7233 27.8774 19.6409 28.6249C19.4971 29.9294 19.8566 31.2375 20.3652 32.4242C21.0549 34.0335 21.9218 35.565 22.8499 37.0472C23.0505 37.3676 23.2438 37.7136 23.5162 37.9799" stroke="#171717" stroke-width="3" stroke-linecap="round"/>
</svg>
