<svg width="95" height="94" viewBox="0 0 95 94" fill="none" xmlns="http://www.w3.org/2000/svg">
<path d="M89.3172 50.2085C88.5151 45.4662 86.2869 41.0232 84.1765 38.2391C81.4152 34.9117 77.9575 30.3987 73.7326 28.8884C66.7242 26.383 55.6401 34.205 55.3259 41.632C54.9826 49.7453 62.7622 52.5594 66.6523 44.9568C70.2539 37.918 64.3329 23.486 56.5351 21.5679C51.727 20.3852 47.6717 24.4677 44.6958 27.6496C38.3225 34.4642 32.8085 42.3711 28.189 50.4642C27.4454 51.7669 23.7544 57.017 25.9042 58.7224C27.1599 59.7185 28.3448 57.3787 28.272 55.7357C28.0022 49.6523 22.5875 41.8852 15.2773 44.4117C12.1225 45.502 8.16008 47.6512 7.88106 51.0279" stroke="#F8E34A" stroke-width="2" stroke-linecap="round"/>
<path d="M7.38518 51.9724C6.23321 49.7232 2.88655 42.9208 4.03852 45.17" stroke="#F8E34A" stroke-width="2" stroke-linecap="round"/>
<path d="M7.70497 52.2243C9.15408 52.0095 10.6016 51.8861 12.055 51.7198C12.5587 51.6621 14.8286 51.363 15.332 51.3968" stroke="#F8E34A" stroke-width="2" stroke-linecap="round"/>
</svg>
