<svg width="115" height="240" viewBox="0 0 115 240" fill="none" xmlns="http://www.w3.org/2000/svg">
<path d="M94.3132 133.197C100.463 146.112 107.793 163.229 102.642 177.538C100.99 182.126 96.9259 185.772 91.879 185.843C91.0674 185.855 88.8518 184.266 89.4209 183.242C90.6422 181.044 98.2227 184.467 99.6351 185.008C106.406 187.599 111.093 194.092 110.875 201.499C110.712 207.07 106.967 212.266 103.477 216.295C97.2886 223.439 89.1899 228.222 81.7842 233.931C79.6215 235.598 78.3545 237.582 75.8418 237.582" stroke="#171717" stroke-width="3" stroke-linecap="round"/>
<path d="M84.2859 124.293L91.8028 134.409C91.8028 134.409 93.9235 134.478 95.427 133.548C96.9306 132.619 97.4159 131.172 97.4159 131.172L91.529 119.416L84.2859 124.293Z" fill="#171717"/>
<path d="M45.7534 53.5874L45.8988 53.484C45.9636 53.4789 46.0282 53.461 46.0892 53.4293L54.3749 49.1286L54.5755 49.5001L55.8035 51.7747C56.8617 53.735 58.3743 56.5369 60.1913 59.9033C63.8254 66.636 68.6776 75.6267 73.5499 84.6584C82.9818 102.142 92.4758 119.755 93.373 121.47C93.3512 121.505 93.3179 121.553 93.2691 121.612C93.1004 121.818 92.818 122.086 92.4372 122.4C91.6816 123.022 90.6116 123.763 89.4966 124.452C88.3815 125.142 87.2405 125.768 86.346 126.165C85.8953 126.366 85.5289 126.498 85.2694 126.557C85.1943 126.574 85.1373 126.583 85.0963 126.587C83.9625 125.017 72.4521 108.651 61.0294 92.398C55.1286 84.0021 49.2556 75.6425 44.8577 69.3819C42.6587 66.2517 40.8286 63.6461 39.5482 61.8231L38.0625 59.7078L37.8199 59.3624L45.395 53.8585C45.4508 53.8179 45.496 53.7677 45.5296 53.7117L45.6995 53.6208C45.7182 53.6109 45.7362 53.5997 45.7534 53.5874ZM85.0195 126.588C85.0196 126.588 85.021 126.588 85.0237 126.589C85.0208 126.588 85.0195 126.588 85.0195 126.588Z" fill="#F8E34A" stroke="#171717" stroke-linejoin="round"/>
<path d="M47.3665 15.379C38.6584 3.03996 25.7729 8.57806 19.8909 12.214C14.009 15.85 3.28727 24.8884 10.4391 38.206C17.5835 51.5117 34.487 57.9867 36.7599 58.1943C39.0328 58.4018 45.603 53.8084 45.603 53.8084C45.603 53.8084 52.637 49.9922 53.4795 47.8589C54.3219 45.7255 56.0746 27.718 47.3665 15.379Z" fill="#8A8A8F"/>
<path d="M33.7057 57.2888L37.7369 60.2332C37.7369 60.2332 40.6515 59.8114 46.8033 55.859C52.943 51.914 55.2171 49.4609 55.2171 49.4609L54.0721 43.951C54.0721 43.951 50.7598 47.4947 43.9963 51.7754C40.0928 54.2549 33.7057 57.2888 33.7057 57.2888Z" fill="#171717"/>
<path d="M51.9152 23.3567L15.8178 45.6707C15.1563 46.0796 14.2804 45.8729 13.8714 45.2114L13.6781 44.8986C13.2692 44.2371 13.4759 43.3612 14.1374 42.9522L50.2348 20.6382C50.8964 20.2293 51.7722 20.436 52.1812 21.0975L52.3745 21.4103C52.7909 22.0839 52.5768 22.9477 51.9152 23.3567Z" fill="#171717"/>
<path d="M65.3931 85.0986C64.4549 85.6786 63.2166 85.3967 62.6292 84.4464L60.0119 80.2124C59.4319 79.2742 59.7138 78.036 60.6641 77.4486C61.6023 76.8686 62.8406 77.1505 63.428 78.1007L66.0453 82.3348C66.6207 83.2924 66.3313 84.5187 65.3931 85.0986Z" fill="#171717"/>
</svg>
