<svg width="43" height="43" viewBox="0 0 43 43" fill="none" xmlns="http://www.w3.org/2000/svg">
<rect x="0.00195312" width="42.0022" height="42.0022" rx="21.0011" fill="#40C351"/>
<path fill-rule="evenodd" clip-rule="evenodd" d="M28.6787 12.7741C27.6793 11.7729 26.4903 10.979 25.1804 10.4385C23.8705 9.89794 22.4659 9.62145 21.0479 9.62503C15.1019 9.62503 10.2615 14.4413 10.2591 20.3615C10.2591 22.2535 10.7554 24.1002 11.6987 25.7291L10.1689 31.2917L15.8878 29.7979C17.4697 30.6549 19.242 31.1043 21.0431 31.1051H21.0479C26.9927 31.1051 31.8332 26.2888 31.8356 20.3687C31.8397 18.958 31.5628 17.5604 31.0209 16.2569C30.4791 14.9533 29.683 13.7696 28.6787 12.7741ZM21.0479 29.2932H21.0443C19.4383 29.2933 17.8618 28.8633 16.4803 28.0481L16.1534 27.8544L12.7598 28.7406L13.6647 25.448L13.452 25.1108C12.5541 23.688 12.0787 22.0416 12.0808 20.3615C12.0833 15.4412 16.1053 11.4382 21.0515 11.4382C22.2295 11.4356 23.3963 11.6655 24.4844 12.1147C25.5724 12.5639 26.5602 13.2234 27.3905 14.055C28.2252 14.8827 28.8868 15.8668 29.3371 16.9505C29.7874 18.0342 30.0174 19.196 30.0138 20.3687C30.0114 25.289 25.9893 29.2932 21.0479 29.2932ZM25.9665 22.6087C25.6961 22.4736 24.3718 21.8254 24.1243 21.7357C23.8779 21.646 23.6989 21.6017 23.5186 21.8696C23.3384 22.1375 22.8216 22.7415 22.6642 22.9209C22.5068 23.1003 22.3494 23.1218 22.0802 22.9879C21.811 22.8539 20.9422 22.5705 19.9123 21.6567C19.1108 20.9451 18.57 20.0673 18.4126 19.7982C18.2552 19.5291 18.3958 19.3843 18.5316 19.2504C18.6529 19.1308 18.8007 18.937 18.9353 18.7804C19.0699 18.6237 19.1144 18.5125 19.2045 18.3331C19.2946 18.1537 19.2502 17.997 19.1817 17.863C19.1144 17.7279 18.5748 16.4075 18.3501 15.8705C18.1326 15.3503 17.9103 15.4196 17.7445 15.4125C17.5727 15.4055 17.4008 15.4023 17.2289 15.4029C17.0922 15.4063 16.9577 15.4379 16.8339 15.4955C16.71 15.5531 16.5994 15.6356 16.5091 15.7378C16.2616 16.0069 15.5658 16.6551 15.5658 17.9755C15.5658 19.2958 16.5319 20.572 16.6665 20.7514C16.8011 20.9308 18.5676 23.6397 21.2714 24.8022C21.9155 25.0785 22.4179 25.2435 22.8084 25.3679C23.4537 25.5724 24.0414 25.5425 24.5064 25.4744C25.0243 25.3978 26.1011 24.8261 26.3258 24.1994C26.5505 23.5727 26.5505 23.0357 26.4832 22.9233C26.4159 22.8109 26.2345 22.7427 25.9665 22.6087Z" fill="white"/>
</svg>
