<svg width="53" height="47" viewBox="0 0 53 47" fill="none" xmlns="http://www.w3.org/2000/svg">
<path d="M14.6387 10.5683C14.8221 8.35323 16.4089 5.78575 18.0639 4.40025C20.7831 2.12386 24.7573 1.98353 27.7413 3.83952C31.0587 5.90293 27.6807 10.3624 26.3382 12.479C23.8416 16.415 21.2951 20.3316 18.7242 24.2128" stroke="#171717" stroke-width="4" stroke-linecap="round"/>
<path d="M14.4404 10.5505C13.1392 8.71692 10.5009 8.31132 8.34171 7.64099C7.43309 7.3589 6.28184 7.56589 5.44865 8.0283C4.01601 8.82338 3.45217 9.58942 2.68045 11.0747C2.063 12.2631 1.93796 13.3517 2.59309 14.5612C3.73646 16.6723 5.63484 18.2613 7.62969 19.5118C10.3348 21.2075 13.2233 22.6006 16.1522 23.8556C16.7851 24.1269 17.4339 24.4444 18.1179 24.5591" stroke="#171717" stroke-width="4" stroke-linecap="round"/>
<path d="M38.8412 31.5379C39.9783 30.2445 42.1571 29.3836 43.8331 29.29C46.5869 29.1361 49.1411 30.8946 50.1539 33.4356C51.2798 36.2605 47.1059 37.4671 45.2882 38.1609C41.9081 39.451 38.5056 40.7058 35.1042 41.9274" stroke="#171717" stroke-width="4" stroke-linecap="round"/>
<path d="M38.7268 31.4349C38.7578 29.6893 37.2923 28.2116 36.2491 26.7916C35.8101 26.194 34.9934 25.7881 34.2581 25.6889C32.9938 25.5184 32.2871 25.7333 31.1183 26.2993C30.1831 26.7521 29.6025 27.3715 29.4547 28.4286C29.1968 30.2735 29.6527 32.1441 30.3253 33.8489C31.2372 36.1607 32.4038 38.3693 33.6594 40.5106C33.9307 40.9734 34.1906 41.4723 34.5661 41.8614" stroke="#171717" stroke-width="4" stroke-linecap="round"/>
</svg>
