<svg width="131" height="32" viewBox="0 0 131 32" fill="none" xmlns="http://www.w3.org/2000/svg">
<path d="M14.5615 7.66348C20.1286 7.44953 90.3163 7.57434 124.714 7.66348L3.40234 16.722C39.5602 17.7026 127.21 21.4741 124.714 21.2602C122.218 21.0462 48.2392 21.748 14.5615 23.7091L127.834 11.9423L55.5523 28.4038" stroke="#F8E34A" stroke-width="6" stroke-linecap="round" stroke-linejoin="round"/>
<path d="M16.8281 5.1889H19.1602V20.353H27.8789V22.4037H16.8281V5.1889ZM35.5428 9.57172C36.4334 9.57172 37.2967 9.78265 38.1327 10.2045C38.9686 10.6186 39.6053 11.1577 40.0428 11.8217C40.4647 12.4545 40.7459 13.1928 40.8866 14.0366C41.0116 14.6147 41.0741 15.5366 41.0741 16.8022H31.8748C31.9139 18.0756 32.2147 19.0991 32.7772 19.8725C33.3397 20.6381 34.2108 21.0209 35.3905 21.0209C36.492 21.0209 37.3709 20.6577 38.0272 19.9311C38.4022 19.5092 38.6678 19.0209 38.8241 18.4662H40.8983C40.8436 18.9272 40.66 19.4428 40.3475 20.0131C40.0428 20.5756 39.6991 21.0366 39.3162 21.3959C38.6756 22.0209 37.8827 22.4428 36.9373 22.6616C36.4295 22.7866 35.8553 22.8491 35.2147 22.8491C33.6522 22.8491 32.328 22.2827 31.242 21.1498C30.1561 20.0092 29.6131 18.4155 29.6131 16.3686C29.6131 14.353 30.16 12.7162 31.2537 11.4584C32.3475 10.2006 33.7772 9.57172 35.5428 9.57172ZM38.9061 15.1264C38.8202 14.2123 38.6209 13.4819 38.3084 12.935C37.7303 11.9194 36.7655 11.4116 35.4139 11.4116C34.4452 11.4116 33.6327 11.7631 32.9764 12.4662C32.3202 13.1616 31.9725 14.0483 31.9334 15.1264H38.9061ZM44.5075 6.34906H46.6403V9.85297H48.6442V11.5756H46.6403V19.767C46.6403 20.2045 46.7887 20.4975 47.0856 20.6459C47.2497 20.7319 47.5231 20.7748 47.9059 20.7748C48.0075 20.7748 48.1169 20.7748 48.2341 20.7748C48.3512 20.767 48.488 20.7553 48.6442 20.7397V22.4037C48.402 22.4741 48.1481 22.5248 47.8825 22.5561C47.6247 22.5873 47.3434 22.603 47.0387 22.603C46.0544 22.603 45.3864 22.353 45.0348 21.853C44.6833 21.3452 44.5075 20.6889 44.5075 19.8842V11.5756H42.8083V9.85297H44.5075V6.34906ZM51.6206 10.1928C52.0503 10.1225 52.3745 9.88031 52.5933 9.46625C52.8198 9.05219 52.9331 8.57562 52.9331 8.03656C52.9331 7.98187 52.9292 7.935 52.9214 7.89594C52.9214 7.84906 52.9136 7.79828 52.898 7.74359H51.6206V5.1889H54.1284V7.54437C54.1284 8.54437 53.9214 9.39594 53.5073 10.0991C53.0933 10.7944 52.4644 11.1928 51.6206 11.2944V10.1928ZM57.7611 18.4662C57.8236 19.1694 57.9994 19.7084 58.2884 20.0834C58.8197 20.7631 59.7416 21.103 61.0541 21.103C61.8353 21.103 62.5228 20.935 63.1166 20.5991C63.7103 20.2553 64.0072 19.728 64.0072 19.017C64.0072 18.478 63.7689 18.0678 63.2923 17.7866C62.9877 17.6147 62.3861 17.4155 61.4877 17.1889L59.8119 16.767C58.7416 16.5014 57.9525 16.2045 57.4447 15.8764C56.5384 15.3061 56.0853 14.517 56.0853 13.5092C56.0853 12.3217 56.5111 11.3608 57.3627 10.6264C58.222 9.89203 59.3744 9.52484 60.8197 9.52484C62.7103 9.52484 64.0736 10.0795 64.9095 11.1889C65.433 11.892 65.6869 12.6498 65.6712 13.4623H63.6791C63.64 12.9858 63.472 12.5522 63.1752 12.1616C62.6908 11.6069 61.8509 11.3295 60.6556 11.3295C59.8587 11.3295 59.2533 11.4819 58.8392 11.7866C58.433 12.0912 58.2298 12.4936 58.2298 12.9936C58.2298 13.5405 58.4994 13.978 59.0384 14.3061C59.3509 14.5014 59.8119 14.6733 60.4212 14.8217L61.8158 15.1616C63.3314 15.5287 64.347 15.8842 64.8627 16.228C65.683 16.767 66.0931 17.6147 66.0931 18.7709C66.0931 19.8881 65.6673 20.853 64.8158 21.6655C63.972 22.478 62.683 22.8842 60.9486 22.8842C59.0814 22.8842 57.7572 22.4623 56.9759 21.6186C56.2025 20.767 55.7884 19.7162 55.7337 18.4662H57.7611ZM81.3037 20.9858C82.2881 20.9858 83.1045 20.5756 83.753 19.7553C84.4092 18.9272 84.7373 17.6928 84.7373 16.0522C84.7373 15.0522 84.5928 14.1928 84.3037 13.4741C83.7569 12.0912 82.7569 11.3998 81.3037 11.3998C79.8428 11.3998 78.8428 12.1303 78.3037 13.5912C78.0147 14.3725 77.8702 15.3647 77.8702 16.5678C77.8702 17.5366 78.0147 18.3608 78.3037 19.0405C78.8506 20.3373 79.8506 20.9858 81.3037 20.9858ZM75.8428 9.91156H77.8936V11.5756C78.3155 11.0053 78.7764 10.5639 79.2764 10.2514C79.9873 9.78265 80.8233 9.54828 81.7842 9.54828C83.2061 9.54828 84.4131 10.0952 85.4053 11.1889C86.3975 12.2748 86.8936 13.8295 86.8936 15.853C86.8936 18.5873 86.1787 20.5405 84.7491 21.7123C83.8428 22.4545 82.7881 22.8256 81.585 22.8256C80.6397 22.8256 79.8467 22.6186 79.2061 22.2045C78.8311 21.9702 78.4131 21.5678 77.9522 20.9975V27.4077H75.8428V9.91156ZM89.8348 5.1889H91.9442V22.4037H89.8348V5.1889ZM97.1472 19.0639C97.1472 19.6733 97.3698 20.1537 97.8152 20.5053C98.2605 20.8569 98.7878 21.0327 99.3972 21.0327C100.139 21.0327 100.858 20.8608 101.553 20.517C102.725 19.9467 103.311 19.0131 103.311 17.7162V16.017C103.053 16.1811 102.721 16.3178 102.315 16.4272C101.909 16.5366 101.51 16.6147 101.12 16.6616L99.8425 16.8256C99.0769 16.9272 98.5027 17.0873 98.1198 17.3061C97.4714 17.6733 97.1472 18.2592 97.1472 19.0639ZM102.257 14.7983C102.741 14.7358 103.065 14.5327 103.229 14.1889C103.323 14.0014 103.37 13.7319 103.37 13.3803C103.37 12.6616 103.112 12.142 102.596 11.8217C102.089 11.4936 101.358 11.3295 100.405 11.3295C99.3034 11.3295 98.5222 11.6264 98.0612 12.2202C97.8034 12.5483 97.6355 13.0366 97.5573 13.685H95.5886C95.6277 12.1381 96.1277 11.0639 97.0886 10.4623C98.0573 9.85297 99.1784 9.54828 100.452 9.54828C101.928 9.54828 103.128 9.82953 104.05 10.392C104.964 10.9545 105.421 11.8295 105.421 13.017V20.2475C105.421 20.4662 105.464 20.642 105.55 20.7748C105.643 20.9077 105.835 20.9741 106.124 20.9741C106.217 20.9741 106.323 20.9702 106.44 20.9623C106.557 20.9467 106.682 20.9272 106.815 20.9037V22.4623C106.487 22.5561 106.237 22.6147 106.065 22.6381C105.893 22.6616 105.659 22.6733 105.362 22.6733C104.635 22.6733 104.108 22.4155 103.78 21.8998C103.608 21.6264 103.487 21.2397 103.417 20.7397C102.987 21.3022 102.37 21.7905 101.565 22.2045C100.76 22.6186 99.8737 22.8256 98.905 22.8256C97.7409 22.8256 96.7878 22.4741 96.0456 21.7709C95.3112 21.06 94.9441 20.1733 94.9441 19.1108C94.9441 17.9467 95.3073 17.0444 96.0339 16.4037C96.7605 15.7631 97.7136 15.3686 98.8933 15.2202L102.257 14.7983ZM117.139 9.85297H119.471C119.174 10.6577 118.514 12.4936 117.491 15.3608C116.725 17.517 116.085 19.2748 115.569 20.6342C114.35 23.8373 113.491 25.7905 112.991 26.4936C112.491 27.1967 111.631 27.5483 110.413 27.5483C110.116 27.5483 109.885 27.5366 109.721 27.5131C109.565 27.4897 109.37 27.4467 109.135 27.3842V25.4623C109.503 25.5639 109.768 25.6264 109.932 25.6498C110.096 25.6733 110.241 25.685 110.366 25.685C110.756 25.685 111.042 25.6186 111.221 25.4858C111.409 25.3608 111.565 25.2045 111.69 25.017C111.729 24.9545 111.87 24.6342 112.112 24.0561C112.354 23.478 112.53 23.0483 112.639 22.767L107.999 9.85297H110.389L113.753 20.0717L117.139 9.85297Z" fill="#171717"/>
</svg>
