<svg width="68" height="52" viewBox="0 0 68 52" fill="none" xmlns="http://www.w3.org/2000/svg">
<path d="M1.83594 26.8956L26.4897 26.0336L6.22594 23.7865L33.1909 25.7993L62.3652 27.9771L40.4908 27.5863L1.83594 26.8956Z" fill="#1C1C1C"/>
<path d="M6.22594 20.0015L63.6955 24.7328L1.83594 26.8956L62.3652 27.9771L6.22594 23.7865L65.957 30.4103L4.49657 31.3566L39.7499 34.3305" stroke="#F8E34A" stroke-width="3.43211" stroke-linecap="round" stroke-linejoin="round"/>
<path d="M7.72154 22.314H9.53681V29.4395H13.8392V31.0013H7.72154V22.314ZM20.1511 29.1153C20.1079 29.4965 19.9095 29.8835 19.5559 30.2764C19.0058 30.9011 18.2357 31.2135 17.2455 31.2135C16.4283 31.2135 15.7073 30.9502 15.0825 30.4237C14.4578 29.8972 14.1454 29.0407 14.1454 27.8541C14.1454 26.7421 14.4264 25.8895 14.9882 25.2962C15.554 24.7029 16.2868 24.4062 17.1866 24.4062C17.721 24.4062 18.2023 24.5064 18.6306 24.7068C19.0588 24.9072 19.4125 25.2235 19.6914 25.6557C19.9429 26.0368 20.106 26.4789 20.1806 26.9818C20.2238 27.2765 20.2415 27.7008 20.2337 28.2548H15.8369C15.8605 28.8992 16.0629 29.3511 16.444 29.6104C16.6758 29.7715 16.9548 29.852 17.2809 29.852C17.6267 29.852 17.9076 29.7538 18.1237 29.5574C18.2416 29.4513 18.3457 29.3039 18.4361 29.1153H20.1511ZM18.4891 27.1468C18.4616 26.7028 18.3261 26.3669 18.0824 26.139C17.8428 25.9072 17.5441 25.7913 17.1866 25.7913C16.7976 25.7913 16.4951 25.9131 16.279 26.1567C16.0668 26.4003 15.9332 26.7303 15.8782 27.1468H18.4891ZM23.9995 29.8049V31.0603L23.2038 31.0897C22.4101 31.1172 21.8679 30.9797 21.5771 30.6772C21.3885 30.4846 21.2942 30.188 21.2942 29.7872V25.8325H20.3984V24.6361H21.2942V22.8444H22.9563V24.6361H23.9995V25.8325H22.9563V29.2273C22.9563 29.4906 22.9897 29.6556 23.0565 29.7224C23.1233 29.7853 23.3276 29.8167 23.6694 29.8167C23.7205 29.8167 23.7735 29.8167 23.8286 29.8167C23.8875 29.8128 23.9445 29.8088 23.9995 29.8049ZM32.2384 24.8718C32.7413 25.194 33.0301 25.748 33.1047 26.5339H31.425C31.4014 26.3178 31.3405 26.1469 31.2423 26.0211C31.0576 25.7932 30.7433 25.6793 30.2993 25.6793C29.9339 25.6793 29.6726 25.7363 29.5155 25.8502C29.3622 25.9642 29.2856 26.0977 29.2856 26.251C29.2856 26.4435 29.3681 26.583 29.5331 26.6694C29.6982 26.7598 30.2816 26.915 31.2836 27.135C31.9515 27.2922 32.4525 27.5299 32.7865 27.8482C33.1165 28.1704 33.2815 28.5731 33.2815 29.0564C33.2815 29.6929 33.0438 30.2135 32.5684 30.6182C32.0969 31.019 31.3661 31.2194 30.3759 31.2194C29.3661 31.2194 28.6196 31.0072 28.1363 30.5829C27.657 30.1546 27.4173 29.6104 27.4173 28.9503H29.1206C29.1559 29.2489 29.2326 29.4611 29.3504 29.5868C29.5587 29.8108 29.9437 29.9228 30.5056 29.9228C30.8356 29.9228 31.0969 29.8737 31.2895 29.7754C31.4859 29.6772 31.5842 29.5299 31.5842 29.3334C31.5842 29.1448 31.5056 29.0014 31.3484 28.9032C31.1912 28.8049 30.6078 28.636 29.598 28.3963C28.8711 28.2156 28.3583 27.9896 28.0597 27.7185C27.7611 27.4513 27.6118 27.0663 27.6118 26.5633C27.6118 25.97 27.8436 25.4612 28.3072 25.0369C28.7748 24.6086 29.431 24.3945 30.2757 24.3945C31.0773 24.3945 31.7315 24.5536 32.2384 24.8718ZM45.6929 25.2667C46.2116 25.8207 46.4709 26.6341 46.4709 27.7067C46.4709 28.8383 46.2155 29.7008 45.7047 30.2941C45.1978 30.8874 44.5436 31.184 43.7421 31.184C43.2313 31.184 42.807 31.0563 42.469 30.8009C42.2844 30.6595 42.1036 30.4532 41.9268 30.1821V33.5297H40.2648V24.5772H41.8738V25.5261C42.0545 25.2471 42.247 25.027 42.4514 24.866C42.8246 24.5791 43.2686 24.4357 43.7833 24.4357C44.5338 24.4357 45.1703 24.7127 45.6929 25.2667ZM44.7381 27.7892C44.7381 27.2942 44.6242 26.8561 44.3963 26.4749C44.1723 26.0938 43.8069 25.9032 43.3001 25.9032C42.691 25.9032 42.2726 26.192 42.0447 26.7696C41.9268 27.0761 41.8679 27.4651 41.8679 27.9366C41.8679 28.6831 42.0663 29.2077 42.4632 29.5102C42.6989 29.687 42.9779 29.7754 43.3001 29.7754C43.7676 29.7754 44.1232 29.5947 44.3668 29.2332C44.6144 28.8717 44.7381 28.3904 44.7381 27.7892Z" fill="#1C1C1C"/>
<path d="M25.0158 23.905C25.7613 23.1711 26.2812 22.1765 26.5755 20.9211C26.1243 20.9211 25.7417 20.7666 25.4278 20.4576C25.1335 20.1486 24.9863 19.772 24.9863 19.3278C24.9863 18.9029 25.1335 18.5359 25.4278 18.2269C25.7417 17.9179 26.1145 17.7634 26.5461 17.7634C27.017 17.7634 27.3995 17.9083 27.6938 18.198C28.0077 18.4877 28.2 18.845 28.2 19.3278C28.2 20.3321 27.9195 21.317 27.429 22.2247C26.9385 23.1324 26.3008 23.7891 25.5161 24.1947L25.0158 23.905Z" fill="#1C1C1C"/>
<path d="M51.1083 25.2728C51.5523 24.707 52.3146 24.4241 53.3951 24.4241C54.0984 24.4241 54.7232 24.5636 55.2693 24.8425C55.8155 25.1215 56.0885 25.648 56.0885 26.4221L56.0885 29.3689C56.0885 29.5732 56.0925 29.8208 56.1003 30.1115C56.1121 30.3316 56.1455 30.4809 56.2005 30.5595C56.2555 30.638 56.338 30.7029 56.448 30.754L56.448 31.0015L54.621 31.0015C54.5699 30.8718 54.5346 30.75 54.5149 30.6361C54.4953 30.5221 54.4795 30.3925 54.4678 30.2471C54.2359 30.4986 53.9688 30.7127 53.6662 30.8895C53.3047 31.0978 52.8961 31.2019 52.4403 31.2019C51.8588 31.2019 51.3775 31.0369 50.9963 30.7068C50.6191 30.3728 50.4305 29.9013 50.4305 29.2923C50.4305 28.5026 50.7351 27.9309 51.3441 27.5772C51.6781 27.3847 52.1692 27.2472 52.8175 27.1647L53.3892 27.094C53.6996 27.0547 53.9216 27.0055 54.0552 26.9466C54.2949 26.8444 54.4147 26.6853 54.4147 26.4692C54.4147 26.206 54.3224 26.0252 54.1377 25.927C53.957 25.8248 53.6898 25.7738 53.3362 25.7738C52.9393 25.7738 52.6584 25.872 52.4934 26.0684C52.3755 26.2138 52.2969 26.4103 52.2576 26.6578L50.6368 26.6578C50.6722 26.0959 50.8294 25.6343 51.1083 25.2728ZM52.3578 29.7874C52.515 29.917 52.7075 29.9819 52.9354 29.9819C53.2969 29.9819 53.6289 29.8758 53.9314 29.6636C54.2379 29.4514 54.397 29.0644 54.4088 28.5026L54.4088 27.8778C54.3027 27.9446 54.1947 27.9996 54.0847 28.0428C53.9786 28.0821 53.8312 28.1195 53.6426 28.1548L53.2654 28.2255C52.9118 28.2884 52.6584 28.365 52.5051 28.4554C52.2458 28.6086 52.1162 28.8464 52.1162 29.1685C52.1162 29.4554 52.1967 29.6617 52.3578 29.7874ZM59.8838 29.3159L61.2099 24.5773L62.9957 24.5773L60.7915 30.8954C60.3671 32.1134 60.0312 32.8678 59.7836 33.1586C59.5361 33.4533 59.041 33.6006 58.2984 33.6006C58.1491 33.6006 58.0293 33.5987 57.9389 33.5947C57.8485 33.5947 57.713 33.5888 57.5322 33.5771L57.5322 32.2333L57.7444 32.2451C57.9094 32.2529 58.0666 32.247 58.2159 32.2274C58.3652 32.2077 58.4909 32.1626 58.5931 32.0918C58.6913 32.025 58.7817 31.8856 58.8642 31.6734C58.9506 31.4612 58.986 31.3315 58.9703 31.2844L56.6128 24.5773L58.4811 24.5773L59.8838 29.3159Z" fill="#1C1C1C"/>
<ellipse cx="6.98994" cy="4.75362" rx="6.98994" ry="4.75362" transform="matrix(0.888683 -0.458521 0.466691 0.88442 33.9336 42.7302)" fill="#1C1C1C"/>
<path d="M52.2403 7.44403C49.9472 5.235 49.0458 2.86628 48.207 0.86171L48.207 8.6844C49.6338 9.07014 51.8452 11.0866 52.7936 11.8158C55.6845 14.0383 57.1907 18.5596 56.8638 20.7978C58.8254 12.9642 54.7049 9.81841 52.2403 7.44403Z" fill="#1C1C1C"/>
<path d="M48.207 41.0965L48.207 8.6844M48.207 8.6844L48.207 0.86171C49.0458 2.86628 49.9472 5.235 52.2403 7.44403C54.7049 9.81841 58.8254 12.9642 56.8638 20.7978C57.1907 18.5596 55.6845 14.0383 52.7936 11.8158C51.8452 11.0866 49.6338 9.07014 48.207 8.6844Z" stroke="#1C1C1C" stroke-width="1.05604" stroke-linecap="round" stroke-linejoin="round"/>
</svg>
