<svg width="78" height="70" viewBox="0 0 78 70" fill="none" xmlns="http://www.w3.org/2000/svg">
<path d="M22.1152 2.19141C19.7454 10.2506 21.3288 16.5133 27.4332 22.6065C33.2127 28.3754 41.0403 32.234 48.9229 34.126C52.4674 34.9768 56.6549 32.3114 53.8524 28.4886C51.0977 24.7311 35.4987 14.7382 37.0938 26.0528C37.7101 30.4244 40.2714 36.631 41.8968 40.1571C46.0323 49.1287 52.3798 60.7198 57.6832 68.8583" stroke="#171717" stroke-width="1.74193" stroke-linecap="round"/>
<path d="M22.189 1.46675C20.7025 2.25084 19.3937 3.42557 18.105 4.48213C17.8583 4.68441 15.6386 6.50103 15.6291 6.43819" stroke="#171717" stroke-width="1.74193" stroke-linecap="round"/>
<path d="M22.4551 1.51465C23.16 2.9152 23.8101 4.33657 24.3917 5.79193C24.6808 6.51546 24.9147 7.31598 25.3242 7.97861" stroke="#171717" stroke-width="1.74193" stroke-linecap="round"/>
</svg>
