<svg width="30" height="51" viewBox="0 0 30 51" fill="none" xmlns="http://www.w3.org/2000/svg">
<path d="M28.1153 1.52918C28.1075 3.46849 27.5896 5.53882 27.1218 7.40799C26.861 8.4499 26.7868 9.49811 26.6239 10.5552C26.4333 11.7923 26.0411 13.0019 25.7034 14.2052C25.2865 15.6912 24.875 17.1761 24.4962 18.673C23.904 21.0131 23.582 23.3922 23.0042 25.7322C22.1926 29.019 21.8879 32.4532 20.7905 35.6561C20.1548 37.5113 19.6355 39.4074 19.0394 41.2759C18.8908 41.7416 18.4866 43.6381 17.9096 43.6557" stroke="#171717" stroke-width="3" stroke-linecap="round"/>
<path d="M17.7674 43.3537C15.5972 40.9529 12.2425 39.7025 9.53747 38.759C7.72647 38.1272 5.03737 36.9001 3.25747 38.2394C2.34618 38.9251 2.30656 40.6752 2.25568 41.8993C2.16603 44.0556 3.99104 45.6477 5.25143 46.6815C7.13245 48.2245 8.92687 48.9093 11.1244 49.1872C12.5353 49.3657 14.4495 49.4902 15.7987 48.8952C17.5785 48.1102 17.9918 46.3313 17.9265 44.1907" stroke="#171717" stroke-width="3" stroke-linecap="round"/>
</svg>
