<svg width="66" height="69" viewBox="0 0 66 69" fill="none" xmlns="http://www.w3.org/2000/svg">
<path d="M24.7388 10.7154C25.9375 12.24 26.8177 14.1842 27.6122 15.9396C28.0551 16.918 28.6481 17.7856 29.1772 18.7152C29.7962 19.803 30.2403 20.9946 30.7233 22.1473C31.3196 23.5707 31.9195 24.99 32.5526 26.3983C33.5423 28.6001 34.7678 30.6644 35.7687 32.8571C37.1744 35.937 39.0691 38.8174 40.1987 42.0091C40.853 43.8578 41.624 45.6663 42.3176 47.5008C42.4905 47.9581 43.3518 49.6953 42.9105 50.0676" stroke="#171717" stroke-width="3" stroke-linecap="round"/>
<path d="M25.1641 10.1826C26.0575 11.2418 27.1417 12.1972 28.086 13.2208C28.7832 13.9764 29.7804 14.6932 30.7388 15.0885C32.9808 16.013 35.5252 16.3313 37.8617 16.9511C39.3442 17.3444 40.8729 18.1323 42.2488 18.7922C44.5026 19.8732 46.2643 21.5275 47.8675 23.428C49.6143 25.4987 50.2348 28.2097 50.7786 30.8138C50.8861 31.3287 51.308 31.6289 50.8901 31.9815" stroke="#171717" stroke-width="3" stroke-linecap="round"/>
<path d="M42.6111 49.9192C39.419 49.3861 36.0134 50.4902 33.3074 51.4311C31.4958 52.0611 28.6262 52.77 28.0634 54.9252C27.7752 56.0286 28.8314 57.4247 29.5519 58.4156C30.8212 60.161 33.2403 60.275 34.8703 60.3022C37.3028 60.3428 39.1344 59.7648 41.0291 58.6174C42.2457 57.8808 43.8231 56.7892 44.5107 55.4848C45.4179 53.764 44.6366 52.1133 43.2557 50.4763" stroke="#171717" stroke-width="3" stroke-linecap="round"/>
</svg>
