<svg width="333" height="108" viewBox="0 0 333 108" fill="none" xmlns="http://www.w3.org/2000/svg">
<path d="M1.63086 46.842C11.4538 68.1676 32.0897 78.5384 54.6588 82.1562C76.355 85.634 98.2737 83.8153 119.826 80.2458C138.156 77.2099 157.001 73.5167 174.38 66.7421C184.977 62.6112 185.933 58.2478 181.836 48.7037C177.103 37.679 164.421 37.5536 153.791 38.5107C149.635 38.8849 131.354 42.0251 136.995 50.3437C141.789 57.4129 151.482 61.7766 159.074 64.8023C177.821 72.2734 198.427 74.7241 218.5 74.7398C252.512 74.7666 295.854 68.1447 317.708 38.5123C321.824 32.9314 325.617 24.2253 318.525 20.0697" stroke="#171717" stroke-width="3" stroke-linecap="round"/>
<path d="M317.07 19.2653C317.33 21.0674 317.428 22.8466 317.587 24.6555C317.656 25.4407 317.51 26.4183 317.168 27.135" stroke="#171717" stroke-width="3" stroke-linecap="round"/>
<path d="M317.435 19.1538C321.298 20.2751 323.333 20.0768 327.004 19.1039" stroke="#171717" stroke-width="3" stroke-linecap="round"/>
</svg>
