<svg width="133" height="64" viewBox="0 0 133 64" fill="none" xmlns="http://www.w3.org/2000/svg">
<path d="M1.09961 19.5758C9.71436 19.4343 18.4175 18.788 26.9527 17.6574C34.4989 16.6578 48.1948 16.0371 52.8561 8.46933C55.9862 3.38749 50.5329 0.362186 46.2543 1.50253C40.9815 2.90784 36.0052 6.22283 32.849 10.7159C25.9041 20.6022 42.2653 30.6951 48.9757 34.4686C59.6624 40.4781 71.3417 44.6732 83.0432 48.2002C95.3537 51.9109 108.038 54.8334 120.891 55.7224C123.422 55.8974 128.279 55.0093 130.768 56.0253" stroke="white" stroke-width="2" stroke-linecap="round"/>
<path d="M130.784 57.1985C128.828 58.9881 126.484 60.3808 124.605 62.2628" stroke="white" stroke-width="2" stroke-linecap="round"/>
<path d="M131.1 55.7511C129.216 53.9263 127.058 52.43 124.955 50.8738C124.084 50.2293 123.184 49.3541 122.218 48.8701" stroke="white" stroke-width="2" stroke-linecap="round"/>
</svg>
