<svg width="40" height="54" viewBox="0 0 40 54" fill="none" xmlns="http://www.w3.org/2000/svg">
<path d="M2.43493 39.0573C2.04845 38.5269 2.21216 36.8241 2.69947 36.4019C3.08972 35.5915 6.34701 33.6891 7.19638 33.7743C9.38036 33.9935 12.5053 34.8914 13.8408 36.6658C14.5858 37.6557 13.3659 39.2044 12.6434 39.8455C11.413 40.9371 9.13148 41.1825 7.51189 41.1069C5.88774 41.0311 3.43323 40.4276 2.43493 39.0573Z" stroke="white" stroke-width="2" stroke-linecap="round"/>
<path d="M20.02 49.8862C19.0082 48.8978 18.8261 47.1158 19.8518 45.9123C20.6904 45.2018 23.822 44.7602 24.7685 44.9943C26.3827 45.3935 28.8937 46.4183 29.78 47.9208C30.282 48.7718 30.6328 50.135 30.0534 51.0666C29.3106 52.261 27.146 52.1971 25.9748 52.0547C24.0238 51.8173 21.4893 51.3217 20.02 49.8862Z" stroke="white" stroke-width="2" stroke-linecap="round"/>
<path d="M13.7414 36.0398C14.946 29.864 15.3426 24.4778 16.4355 17.3559C16.8506 12.0947 17.8835 7.00933 18.8931 1.83336" stroke="white" stroke-width="2" stroke-linecap="round"/>
<path d="M18.8945 1.8335C19.0196 2.37733 20.1246 2.91555 20.4889 3.15135C22.8869 4.70382 25.453 5.96248 27.9856 7.26745C29.8505 8.2284 31.6056 9.32731 33.5206 10.181C34.7865 10.7454 36.1814 10.8528 37.4284 11.4036" stroke="white" stroke-width="2" stroke-linecap="round"/>
<path d="M37.4287 11.4035C36.4394 15.565 35.4258 19.7229 34.6056 23.9276C33.967 27.2013 33.7016 30.5111 33.0636 33.7817C32.4061 37.1526 31.8726 40.5374 31.2153 43.9069C30.9549 45.2417 30.6946 46.5766 30.4342 47.9114C30.4116 48.0272 30.3207 48.661 30.2283 48.3172" stroke="white" stroke-width="2" stroke-linecap="round"/>
<path d="M17.7754 12.749C18.8657 14.3461 20.5468 15.5797 22.2558 16.4134C24.6431 17.5781 27.1303 18.4927 29.5079 19.6907C31.013 20.4491 32.4159 21.3007 34.0386 21.6173" stroke="white" stroke-width="2" stroke-linecap="round"/>
</svg>
