<svg width="47" height="52" viewBox="0 0 47 52" fill="none" xmlns="http://www.w3.org/2000/svg">
<path d="M21.1351 6.08898C21.804 7.49641 22.1494 9.17614 22.4612 10.6927C22.635 11.5381 22.9459 12.3231 23.1958 13.1455C23.4882 14.1078 23.6252 15.1204 23.7996 16.1093C24.0149 17.3306 24.2337 18.5493 24.4803 19.7652C24.866 21.6662 25.4606 23.5014 25.8565 25.3973C26.4127 28.0603 27.3868 30.6537 27.7071 33.3552C27.8926 34.9201 28.1766 36.474 28.3953 38.0347C28.4498 38.4237 28.8171 39.9379 28.4059 40.1513" stroke="white" stroke-width="2" stroke-linecap="round"/>
<path d="M21.5615 5.74731C22.0738 6.73586 22.7536 7.677 23.312 8.64676C23.7242 9.36261 24.3781 10.1013 25.0586 10.5812C26.6503 11.7037 28.5858 12.4048 30.3053 13.3053C31.3963 13.8766 32.4537 14.7654 33.4142 15.5268C34.9875 16.7739 36.0743 18.383 36.9934 20.1568C37.9949 22.0895 38.0015 24.324 37.967 26.4611C37.9602 26.8837 38.2374 27.1938 37.8479 27.3959" stroke="white" stroke-width="2" stroke-linecap="round"/>
<path d="M28.1968 39.9823C25.7922 38.9979 22.9311 39.2585 20.6465 39.5154C19.117 39.6874 16.7454 39.7335 15.9239 41.3224C15.5034 42.1359 16.0834 43.4174 16.4724 44.3217C17.1575 45.9148 19.0312 46.4335 20.3023 46.7442C22.1993 47.2078 23.7353 47.0801 25.4213 46.5174C26.5038 46.1561 27.9315 45.5808 28.7003 44.6807C29.7145 43.4934 29.3946 42.0611 28.603 40.5333" stroke="white" stroke-width="2" stroke-linecap="round"/>
</svg>
