<svg width="47" height="88" viewBox="0 0 47 88" fill="none" xmlns="http://www.w3.org/2000/svg">
<path d="M14.9972 85.0602C13.0426 84.5171 10.0582 83.3579 10.7526 80.7662C9.91445 79.3197 11.2826 76.9814 13.7541 76.8354C15.2687 76.7459 16.3968 77.589 17.3872 78.6208C18.4043 79.6803 20.3444 81.2476 20.01 82.9609C19.7922 84.077 19.0793 84.6505 18.0947 85.1238C17.0554 85.6234 16.0726 85.3591 14.9972 85.0602Z" stroke="#171717" stroke-width="3" stroke-linecap="round"/>
<path d="M30.8467 2.3461C27.8629 2.09937 24.1943 5.00091 23.045 7.64992C21.8911 10.3097 20.8421 12.9456 20.7075 15.8836C20.6169 17.8614 20.2774 19.7945 20.3205 21.7869C20.3791 24.5002 20.8155 27.1779 21.0947 29.8729C21.5974 34.7258 22.3368 39.5711 23.0014 44.4133C23.7504 49.8698 24.2335 55.3564 24.9181 60.8278C25.25 63.4808 25.5848 66.1691 25.7919 68.8358C25.8992 70.217 25.8711 71.828 26.1038 73.1596C26.6851 76.4868 26.0311 83.0225 22.0077 83.8405" stroke="#171717" stroke-width="3" stroke-linecap="round"/>
<path d="M31.1099 3.20919C30.8647 4.12454 30.9089 5.26266 31.0265 6.19756C31.1841 7.44952 31.1 8.72985 31.3373 9.96899C31.7819 12.2908 31.6516 14.5023 31.0421 16.7769C30.0938 20.3164 28.0817 23.4484 26.1362 26.5268C25.2237 27.9705 24.0601 29.2423 22.9505 30.4904" stroke="#171717" stroke-width="3" stroke-linecap="round"/>
<path d="M22.7917 30.4478C22.14 31.4329 20.567 32.2397 19.6442 33.0009C18.4401 33.9942 17.212 34.9608 16.0409 35.987C14.2562 37.5508 12.8179 39.8979 12.02 42.1166C11.0825 44.7237 9.80947 47.1962 9.08703 49.8924C8.50499 52.0646 8.68257 53.8606 8.70227 56.0836C8.7423 60.5997 8.47819 66.1659 13.3163 68.3467C17.0106 70.012 21.0614 69.8316 24.9844 69.8173" stroke="#171717" stroke-width="3" stroke-linecap="round"/>
<path d="M25.1444 69.8598C25.19 69.7479 25.786 69.5237 25.9378 69.4702C26.7365 69.1886 27.7578 68.9312 28.4224 68.4048C29.4006 67.6299 30.323 66.384 30.6525 65.1543C31.6186 61.5489 33.6061 57.6743 32.654 53.8452C32.2287 52.1347 30.9693 49.8677 29.4543 48.914C27.6757 47.7943 25.7399 46.9873 23.7167 46.4451C22.1469 46.0245 20.981 46.5547 19.509 47.143C18.4614 47.5616 17.0465 47.827 16.2087 48.6108C14.9181 49.8181 13.8633 51.0939 13.4016 52.8169C12.9742 54.4121 13.294 56.5233 15.1625 57.0239" stroke="#171717" stroke-width="3" stroke-linecap="round"/>
</svg>
