<svg width="45" height="57" viewBox="0 0 45 57" fill="none" xmlns="http://www.w3.org/2000/svg">
<path d="M24.7449 1.7375C25.5034 3.52233 25.8449 5.62897 26.1531 7.53098C26.3249 8.5912 26.6706 9.58355 26.9383 10.6191C27.2516 11.8309 27.3688 13.0972 27.5337 14.336C27.7374 15.8658 27.9455 17.3926 28.1885 18.9174C28.5684 21.3013 29.2119 23.6141 29.6049 25.9922C30.1569 29.3325 31.2329 32.6079 31.4892 35.9838C31.6376 37.9394 31.9092 39.8864 32.0992 41.8385C32.1466 42.325 32.524 44.227 32.0007 44.471" stroke="#171717" stroke-width="3" stroke-linecap="round"/>
<path d="M31.7503 44.2498C28.8085 42.901 25.2327 43.0767 22.3748 43.2778C20.4616 43.4124 17.5064 43.3467 16.3999 45.2799C15.8334 46.2697 16.488 47.8933 16.9245 49.038C17.6935 51.0545 19.9988 51.7967 21.565 52.2489C23.9024 52.9238 25.8214 52.8446 27.9501 52.2323C29.3169 51.8392 31.1248 51.1978 32.1294 50.1184C33.4547 48.6945 33.132 46.8969 32.2269 44.956" stroke="#171717" stroke-width="3" stroke-linecap="round"/>
</svg>
