<svg width="67" height="105" viewBox="0 0 67 105" fill="none" xmlns="http://www.w3.org/2000/svg">
<path d="M10.7822 1.06787C24.0928 11.3419 35.7548 25.2864 43.8006 39.9775C47.2091 46.2011 51.5203 56.219 44.0526 61.3151C40.7729 63.5532 34.4717 64.7332 30.61 63.407C28.008 62.5133 30.4803 57.0034 31.7022 56.1271C36.8421 52.4413 45.7783 53.7137 51.4461 54.9556C58.1 56.4136 62.1088 63.2622 64.3846 69.1807C67.3056 76.7768 65.2375 84.2486 57.3272 87.2548C40.8323 93.5235 20.7049 93.4836 3.2207 94.451" stroke="#171717" stroke-width="2" stroke-linecap="round"/>
<path d="M2.03906 94.1378C3.58692 92.8298 5.24802 91.6606 6.88946 90.4734C7.75467 89.8476 8.7502 89.2556 9.5113 88.4976" stroke="#171717" stroke-width="2" stroke-linecap="round"/>
<path d="M1.64648 95.0771C4.52475 98.1725 7.73694 100.922 11.3997 103.068" stroke="#171717" stroke-width="2" stroke-linecap="round"/>
</svg>
