<svg width="60" height="61" viewBox="0 0 60 61" fill="none" xmlns="http://www.w3.org/2000/svg">
<path d="M21.2413 6.56975C22.4493 8.1091 23.3385 10.0705 24.1411 11.8413C24.5886 12.8284 25.1865 13.7041 25.7203 14.6422C26.345 15.74 26.7942 16.9418 27.2822 18.1046C27.885 19.5405 28.4913 20.9722 29.1308 22.393C30.1306 24.6141 31.367 26.6974 32.3781 28.9095C33.7981 32.0167 35.7087 34.9241 36.8517 38.1431C37.5138 40.0077 38.2929 41.832 38.9943 43.6824C39.1692 44.1436 40.0389 45.8964 39.5966 46.2703" stroke="#171717" stroke-width="3" stroke-linecap="round"/>
<path d="M21.667 6.03369C22.5672 7.10325 23.6587 8.06881 24.61 9.10271C25.3122 9.86591 26.3157 10.5908 27.2795 10.9916C29.5339 11.929 32.0905 12.2563 34.439 12.887C35.9292 13.2872 37.4668 14.085 38.8506 14.7536C41.1173 15.8487 42.8912 17.5202 44.5065 19.4395C46.2665 21.5305 46.8968 24.2639 47.4498 26.8893C47.5591 27.4084 47.9837 27.712 47.5648 28.0662" stroke="#171717" stroke-width="3" stroke-linecap="round"/>
<path d="M39.2957 46.1197C36.088 45.5742 32.67 46.6779 29.9544 47.619C28.1363 48.2491 25.2557 48.9559 24.6959 51.1261C24.4093 52.2373 25.4738 53.6468 26.2002 54.6471C27.4796 56.4093 29.9099 56.5303 31.5472 56.562C33.9908 56.6092 35.8291 56.0315 37.7293 54.8803C38.9494 54.1412 40.531 53.0454 41.2184 51.7327C42.1251 50.0012 41.336 48.3358 39.9447 46.6827" stroke="#171717" stroke-width="3" stroke-linecap="round"/>
</svg>
