<svg width="36" height="51" viewBox="0 0 36 51" fill="none" xmlns="http://www.w3.org/2000/svg">
<path d="M34.1938 3.67635C33.8657 5.57383 33.0145 7.51509 32.2459 9.26771C31.8175 10.2447 31.5713 11.2587 31.2366 12.2667C30.8449 13.4463 30.2595 14.5657 29.7288 15.688C29.0735 17.0738 28.4237 18.4595 27.8041 19.8623C26.8354 22.0555 26.1259 24.3315 25.1713 26.5269C23.8305 29.6106 22.9637 32.9226 21.3559 35.8767C20.4245 37.5879 19.6009 39.3584 18.7062 41.0891C18.4833 41.5205 17.7727 43.3104 17.2025 43.232" stroke="#171717" stroke-width="3" stroke-linecap="round"/>
<path d="M17.1121 42.9128C15.3756 40.2028 12.2848 38.4229 9.78188 37.0511C8.1062 36.1326 5.66578 34.4858 3.69503 35.5022C2.68603 36.0227 2.35794 37.7297 2.10569 38.9198C1.66133 41.0161 3.19212 42.8772 4.26017 44.0982C5.85413 45.9204 7.50473 46.8881 9.61876 47.5242C10.9761 47.9326 12.8371 48.3715 14.2615 48.0124C16.1406 47.5386 16.8407 45.8653 17.1302 43.7586" stroke="#171717" stroke-width="3" stroke-linecap="round"/>
</svg>
