<svg width="15" height="18" viewBox="0 0 15 18" fill="none" xmlns="http://www.w3.org/2000/svg">
<path d="M8.46582 1.52539C8.46582 3.94537 9.02596 6.45176 10.5142 8.4312C11.0567 9.15274 11.8387 9.53094 12.5998 9.97081C12.8497 10.1152 13.0776 10.3335 13.3596 10.4043" stroke="white" stroke-width="2" stroke-linecap="round"/>
<path d="M13.3591 10.4043C11.1683 11.0704 9.20902 12.1652 7.35545 13.5284C6.42967 14.2092 5.56136 14.9596 4.8378 15.8565C4.67434 16.059 4.44031 16.2672 4.37598 16.5254" stroke="white" stroke-width="2" stroke-linecap="round"/>
<path d="M7.92929 1.65967C7.72324 3.21029 7.26848 5.25468 5.95539 6.2486C5.19679 6.8228 4.24379 7.1508 3.39676 7.56773C2.91212 7.80628 2.43464 8.05588 1.96289 8.31885" stroke="white" stroke-width="2" stroke-linecap="round"/>
<path d="M1.35938 8.58813C1.51613 8.63532 1.67949 8.87778 1.78767 8.98425C2.3695 9.55681 2.91225 10.1702 3.44873 10.7854C4.01834 11.4386 4.24011 12.1696 4.40589 13.0164C4.59324 13.9734 4.44313 14.9013 4.44313 15.8527" stroke="white" stroke-width="2" stroke-linecap="round"/>
</svg>
