<svg width="372" height="19" viewBox="0 0 372 19" fill="none" xmlns="http://www.w3.org/2000/svg">
<path d="M2.11719 2.59765C121.994 5.53142 241.933 6.7688 361.855 6.7688C364.748 6.7688 373.428 6.7688 370.535 6.7688C361.43 6.7688 352.313 7.1956 343.218 7.4971C269.316 9.94699 195.321 12.4768 121.379 13.6545C95.7442 14.0628 70.101 13.9193 44.4636 13.9193C18.249 13.9193 96.894 13.4281 123.107 13.6876C159.82 14.0511 196.534 14.913 233.238 15.6739C235.229 15.7152 241.204 15.707 239.212 15.707C233.563 15.707 227.915 15.7039 222.266 15.7401C167.448 16.0913 112.62 17.5455 57.8026 16.4353C55.7484 16.3937 53.6902 16.4274 51.6403 16.3029C48.8761 16.1349 57.1757 16.0705 59.9443 15.9718C84.0784 15.1115 108.216 14.3129 132.35 13.4559C154.015 12.6865 175.686 12.2063 197.354 11.5358C202.68 11.371 218.569 10.9647 213.286 10.3441C204.543 9.31703 195.472 9.40637 186.683 9.0199C160.239 7.85709 133.811 6.43904 107.363 5.34532C88.0186 4.54533 29.9902 2.15777 49.3107 3.32595C62.0753 4.09774 75.0923 3.3025 87.8621 3.19353C120.253 2.91714 152.64 2.42505 185.03 2.13419C191.382 2.07715 203.365 2.00177 210.28 2.00177C212.412 2.00177 218.218 1.49898 220.763 2.29971C222.031 2.69865 218.144 2.85883 216.818 3.06111C214.876 3.35723 214.294 3.73238 212.459 3.19353" stroke="#F8E34A" stroke-width="3" stroke-linecap="round"/>
</svg>
